<svg width="24" height="22" viewBox="0 0 24 22" fill="none" xmlns="http://www.w3.org/2000/svg">
<path d="M3 13.0714L10.9219 21.4196L10.945 21.4428C11.5235 22.0225 12.4658 22.012 13.0312 21.4196L21 13.0714L22.125 11.8929C23.2969 10.6652 24 8.94643 24 7.17857C24 3.49554 21.1406 0.5 17.625 0.5C15.9375 0.5 14.2969 1.23661 13.125 2.46429L13.0312 2.5625L12 3.64286L10.9219 2.5625L10.8281 2.46429C9.65625 1.23661 8.01562 0.5 6.32812 0.5C2.8125 0.5 0 3.49554 0 7.17857C0 8.94643 0.65625 10.6652 1.82812 11.8929L3 13.0714Z" fill="#8E8E8E"/>
</svg>
